# xmcd
#
# Track frame offsets:
#	150
#	12283
#	24965
#	37127
#	48182
#	60577
#	71360
#	86833
#	103678
#	119335
#	134045
#	144267
#	156740
#	177967
#	194539
#	207354
#
# Disc length: 2949 seconds
#
# Revision: 1
# Processed by: cddbd v1.5.1PL0 Copyright (c) Steve Scherf et al.
# Submitted via: audiograbber 1.83.01
#
DISCID=e90b8310
DTITLE=Karaoke - MH010
DYEAR=1900
DGENRE=Male Country Hits
TTITLE0=Paycheck, Johnny - Take This Job and Shove It
TTITLE1=Haggard, Merle - Okie From Muskogee
TTITLE2=Miller, Roger - King of the Road
TTITLE3=Ford, "Tennessee" Ernie - Sixteen Tons
TTITLE4=Oak Ridge Boys, The - Elvira
TTITLE5=Neslon, Willie - On The Road Again
TTITLE6=Strait, George  - All My Exes Live in Texas
TTITLE7=Charlie Daniels Band, The  - Devil Went Down To Georgia, The
TTITLE8=Jones, George - He Stopped Loving Her Today
TTITLE9=Campbell, Glen - Rhinestone Cowboy
TTITLE10=Jones, George - Race Is On, The
TTITLE11=Cash, Johnny - Ring Of Fire
TTITLE12=Robbins, Marty - El Paso
TTITLE13=Rogers, Kenny - Gambler, The
TTITLE14=Williams, Hank - Your Cheatin' Heart
TTITLE15=Pride, Charley - Behind Closed Doors
EXTD=
EXTT0=
EXTT1=
EXTT2=
EXTT3=
EXTT4=
EXTT5=
EXTT6=
EXTT7=
EXTT8=
EXTT9=
EXTT10=
EXTT11=
EXTT12=
EXTT13=
EXTT14=
EXTT15=
PLAYORDER=
